<svg width="120" height="120" viewBox="0 0 120 120" fill="none" xmlns="http://www.w3.org/2000/svg">
  <defs>
    <linearGradient id="grad5" x1="0%" y1="0%" x2="100%" y2="100%">
      <stop offset="0%" style="stop-color:#EF4444;stop-opacity:1" />
      <stop offset="100%" style="stop-color:#DC2626;stop-opacity:1" />
    </linearGradient>
  </defs>
  
  <!-- Background Circle -->
  <circle cx="60" cy="60" r="55" fill="url(#grad5)" opacity="0.1"/>
  
  <!-- Briefcase -->
  <rect x="30" y="45" width="60" height="35" rx="3" fill="#EF4444"/>
  <rect x="35" y="50" width="50" height="25" rx="1" fill="#DC2626"/>
  
  <!-- Briefcase Handle -->
  <rect x="45" y="40" width="30" height="8" rx="4" fill="#EF4444"/>
  <rect x="50" y="42" width="20" height="4" rx="2" fill="#DC2626"/>
  
  <!-- Documents -->
  <rect x="40" y="55" width="8" height="12" rx="1" fill="white" opacity="0.9"/>
  <rect x="50" y="55" width="8" height="12" rx="1" fill="white" opacity="0.9"/>
  <rect x="60" y="55" width="8" height="12" rx="1" fill="white" opacity="0.9"/>
  <rect x="70" y="55" width="8" height="12" rx="1" fill="white" opacity="0.9"/>
  
  <!-- Document Lines -->
  <line x1="42" y1="58" x2="46" y2="58" stroke="#6B7280" stroke-width="1"/>
  <line x1="42" y1="61" x2="46" y2="61" stroke="#6B7280" stroke-width="1"/>
  <line x1="42" y1="64" x2="45" y2="64" stroke="#6B7280" stroke-width="1"/>
  
  <line x1="52" y1="58" x2="56" y2="58" stroke="#6B7280" stroke-width="1"/>
  <line x1="52" y1="61" x2="56" y2="61" stroke="#6B7280" stroke-width="1"/>
  <line x1="52" y1="64" x2="55" y2="64" stroke="#6B7280" stroke-width="1"/>
  
  <line x1="62" y1="58" x2="66" y2="58" stroke="#6B7280" stroke-width="1"/>
  <line x1="62" y1="61" x2="66" y2="61" stroke="#6B7280" stroke-width="1"/>
  <line x1="62" y1="64" x2="65" y2="64" stroke="#6B7280" stroke-width="1"/>
  
  <line x1="72" y1="58" x2="76" y2="58" stroke="#6B7280" stroke-width="1"/>
  <line x1="72" y1="61" x2="76" y2="61" stroke="#6B7280" stroke-width="1"/>
  <line x1="72" y1="64" x2="75" y2="64" stroke="#6B7280" stroke-width="1"/>
  
  <!-- Graph -->
  <rect x="35" y="75" width="50" height="20" fill="white" opacity="0.1" rx="2"/>
  <polyline points="40,85 50,80 60,82 70,78 80,75" stroke="#F59E0B" stroke-width="2" fill="none"/>
  <circle cx="40" cy="85" r="2" fill="#F59E0B"/>
  <circle cx="50" cy="80" r="2" fill="#F59E0B"/>
  <circle cx="60" cy="82" r="2" fill="#F59E0B"/>
  <circle cx="70" cy="78" r="2" fill="#F59E0B"/>
  <circle cx="80" cy="75" r="2" fill="#F59E0B"/>
</svg> 