<svg width="120" height="120" viewBox="0 0 120 120" fill="none" xmlns="http://www.w3.org/2000/svg">
  <defs>
    <linearGradient id="grad1" x1="0%" y1="0%" x2="100%" y2="100%">
      <stop offset="0%" style="stop-color:#3B82F6;stop-opacity:1" />
      <stop offset="100%" style="stop-color:#1D4ED8;stop-opacity:1" />
    </linearGradient>
  </defs>
  
  <!-- Background Circle -->
  <circle cx="60" cy="60" r="55" fill="url(#grad1)" opacity="0.1"/>
  
  <!-- Lightbulb -->
  <path d="M60 20C45.6 20 34 31.6 34 46C34 56.8 39.2 66.4 47.6 71.2V78C47.6 80.8 49.8 83 52.6 83H67.4C70.2 83 72.4 80.8 72.4 78V71.2C80.8 66.4 86 56.8 86 46C86 31.6 74.4 20 60 20Z" fill="#3B82F6"/>
  
  <!-- Lightbulb Base -->
  <rect x="52" y="83" width="16" height="4" rx="2" fill="#1D4ED8"/>
  <rect x="54" y="87" width="12" height="2" rx="1" fill="#1D4ED8"/>
  
  <!-- Light Rays -->
  <path d="M60 15L62 25L58 25L60 15Z" fill="#FBBF24"/>
  <path d="M85 60L75 62L75 58L85 60Z" fill="#FBBF24"/>
  <path d="M60 85L62 75L58 75L60 85Z" fill="#FBBF24"/>
  <path d="M35 60L25 62L25 58L35 60Z" fill="#FBBF24"/>
  
  <!-- Book Pages -->
  <rect x="45" y="35" width="30" height="20" rx="2" fill="white" opacity="0.9"/>
  <line x1="50" y1="40" x2="70" y2="40" stroke="#6B7280" stroke-width="1"/>
  <line x1="50" y1="45" x2="65" y2="45" stroke="#6B7280" stroke-width="1"/>
  <line x1="50" y1="50" x2="68" y2="50" stroke="#6B7280" stroke-width="1"/>
  
  <!-- Sparkles -->
  <circle cx="25" cy="35" r="2" fill="#F59E0B"/>
  <circle cx="95" cy="45" r="1.5" fill="#F59E0B"/>
  <circle cx="30" cy="85" r="1.5" fill="#F59E0B"/>
  <circle cx="90" cy="75" r="2" fill="#F59E0B"/>
</svg> 